<svg id="Laag_1" data-name="Laag 1" xmlns="http://www.w3.org/2000/svg" viewBox="0 0 642.98 383.98"><defs><style>.cls-1{fill:#020201;}</style></defs><title>logo_verhoudingen</title><path class="cls-1" d="M109.87,309.53a25.49,25.49,0,0,1-3.46.66,35.5,35.5,0,0,1-4.89.33,25.89,25.89,0,0,1-4.34-.33,7.41,7.41,0,0,1-3.24-1.32,6.33,6.33,0,0,1-2-2.69,11.64,11.64,0,0,1-.71-4.45v-24.4q0-4.51-2.25-6.32a8.57,8.57,0,0,0-5.55-1.81,15.52,15.52,0,0,0-4.18.55A12,12,0,0,0,76,271.07v38.46a25.49,25.49,0,0,1-3.46.66,35.5,35.5,0,0,1-4.89.33,25.93,25.93,0,0,1-4.34-.33,7.4,7.4,0,0,1-3.24-1.32,6.33,6.33,0,0,1-2-2.69,11.61,11.61,0,0,1-.72-4.45V238l3.57-.6A29.72,29.72,0,0,1,65.7,237a26,26,0,0,1,4.34.33,7.39,7.39,0,0,1,3.24,1.32,6.35,6.35,0,0,1,2,2.69,11.68,11.68,0,0,1,.71,4.45v10.77a39.15,39.15,0,0,1,4.34-1.26,26.94,26.94,0,0,1,6.43-.72q10.88,0,17,5.44t6.1,16.21Z"/><path class="cls-1" d="M143.39,254.58a45.18,45.18,0,0,1,10.83,1.21,24.26,24.26,0,0,1,8.35,3.68,16.64,16.64,0,0,1,5.33,6.26,20.06,20.06,0,0,1,1.87,9v24.62a6.82,6.82,0,0,1-1.59,4.67,15.91,15.91,0,0,1-3.79,3.13q-7.15,4.29-20.11,4.29a46,46,0,0,1-10.5-1.1,24.87,24.87,0,0,1-8-3.3,15.12,15.12,0,0,1-5.16-5.61,16.58,16.58,0,0,1-1.81-7.91q0-7.58,4.51-11.65t14-5.06l14.4-1.54v-.77a4.71,4.71,0,0,0-2.8-4.56,18.87,18.87,0,0,0-8.08-1.37,37.39,37.39,0,0,0-8.13.88,43.3,43.3,0,0,0-7.14,2.2,7.58,7.58,0,0,1-2.42-3,9.54,9.54,0,0,1-1-4.23,7.05,7.05,0,0,1,1.37-4.56,10.64,10.64,0,0,1,4.23-2.91,33,33,0,0,1,7.53-1.76A65.53,65.53,0,0,1,143.39,254.58Zm.88,43.19a24.51,24.51,0,0,0,4.12-.38,10,10,0,0,0,3.35-1v-8.79l-7.91.66a12.19,12.19,0,0,0-5.05,1.32,3.55,3.55,0,0,0-2,3.3,4.37,4.37,0,0,0,1.7,3.57Q140.2,297.78,144.27,297.77Z"/><path class="cls-1" d="M197.38,309.53a25.47,25.47,0,0,1-3.46.66,35.48,35.48,0,0,1-4.89.33,25.91,25.91,0,0,1-4.34-.33,7.41,7.41,0,0,1-3.24-1.32,6.33,6.33,0,0,1-2-2.69,11.64,11.64,0,0,1-.71-4.45v-33a9.35,9.35,0,0,1,.93-4.34,10.17,10.17,0,0,1,2.69-3.24,19.46,19.46,0,0,1,4.34-2.58,44.9,44.9,0,0,1,5.55-2,47.29,47.29,0,0,1,6.15-1.37,41.53,41.53,0,0,1,6.37-.49,15,15,0,0,1,8.35,2q3.07,2,3.08,6.65a10.62,10.62,0,0,1-.44,3,13.77,13.77,0,0,1-1.1,2.69q-2.31,0-4.73.22t-4.73.66q-2.31.44-4.34.93a19,19,0,0,0-3.46,1.15Z"/><path class="cls-1" d="M240.7,291.29a4.52,4.52,0,0,0,1.81,4.07,9.15,9.15,0,0,0,5.11,1.21,22,22,0,0,0,3.41-.27,18.93,18.93,0,0,0,3.08-.71,13.46,13.46,0,0,1,1.7,2.69,8.19,8.19,0,0,1,.71,3.57,8.49,8.49,0,0,1-3.13,6.81q-3.13,2.64-11,2.64-9.67,0-14.89-4.4t-5.22-14.29v-47q1.21-.33,3.46-.72a28.54,28.54,0,0,1,4.78-.38,14.07,14.07,0,0,1,7.53,1.7q2.69,1.71,2.69,7.2v7h14.4a18.89,18.89,0,0,1,1.26,3,12.69,12.69,0,0,1,.6,4q0,3.85-1.7,5.55a6.17,6.17,0,0,1-4.56,1.7h-10Z"/><path class="cls-1" d="M295,311.4a38.52,38.52,0,0,1-12-1.81,27.25,27.25,0,0,1-9.67-5.44,25.15,25.15,0,0,1-6.48-9.12,32.31,32.31,0,0,1-2.36-12.86,30,30,0,0,1,2.36-12.47,24.13,24.13,0,0,1,15-13.52,32.79,32.79,0,0,1,10.11-1.59,30.54,30.54,0,0,1,10.6,1.76,25.53,25.53,0,0,1,8.24,4.84,21.56,21.56,0,0,1,5.39,7.36,22.58,22.58,0,0,1,1.92,9.34A7.5,7.5,0,0,1,316,283.6a10.43,10.43,0,0,1-5.83,2.53L283,290.19a9.12,9.12,0,0,0,4.94,5.44,19.4,19.4,0,0,0,8.57,1.81,30.68,30.68,0,0,0,8.52-1.15,27,27,0,0,0,6.54-2.69,9.23,9.23,0,0,1,3,3.08,8.07,8.07,0,0,1-3.41,11.54,24.48,24.48,0,0,1-7.91,2.53A55.75,55.75,0,0,1,295,311.4Zm-3.08-43.19a10.92,10.92,0,0,0-4.56.88,9.18,9.18,0,0,0-3.13,2.25,9.33,9.33,0,0,0-1.81,3.08,12.59,12.59,0,0,0-.71,3.46l18.79-3.08a8.32,8.32,0,0,0-2.42-4.4Q296,268.21,291.93,268.21Z"/><path class="cls-1" d="M377.85,300q-.55,5.17-3,7.91t-7.2,2.75a11.65,11.65,0,0,1-6.26-1.7,24.5,24.5,0,0,1-5.93-5.77l-10.88-13.63v20l-3.57.61a29.91,29.91,0,0,1-4.78.38,25.93,25.93,0,0,1-4.34-.33,7.4,7.4,0,0,1-3.24-1.32,6.33,6.33,0,0,1-2-2.69,11.61,11.61,0,0,1-.72-4.45V238.1q1.21-.33,3.57-.71a29.72,29.72,0,0,1,4.78-.38,26,26,0,0,1,4.34.33,7.39,7.39,0,0,1,3.24,1.32,6.35,6.35,0,0,1,2,2.69,11.68,11.68,0,0,1,.71,4.45v29l18.9-19.34q5.71,0,9.18,2.53a7.62,7.62,0,0,1,3.46,6.37,8.06,8.06,0,0,1-.55,3,11,11,0,0,1-1.7,2.8,25.22,25.22,0,0,1-3,3q-1.81,1.59-4.23,3.68l-6.37,5.49Z"/><path class="cls-1" d="M407.39,254.58a45.18,45.18,0,0,1,10.83,1.21,24.26,24.26,0,0,1,8.35,3.68,16.64,16.64,0,0,1,5.33,6.26,20.06,20.06,0,0,1,1.87,9v24.62a6.82,6.82,0,0,1-1.59,4.67,15.91,15.91,0,0,1-3.79,3.13q-7.15,4.29-20.11,4.29a46,46,0,0,1-10.5-1.1,24.87,24.87,0,0,1-8-3.3,15.12,15.12,0,0,1-5.16-5.61,16.58,16.58,0,0,1-1.81-7.91q0-7.58,4.51-11.65t14-5.06l14.4-1.54v-.77a4.71,4.71,0,0,0-2.8-4.56,18.87,18.87,0,0,0-8.08-1.37,37.39,37.39,0,0,0-8.13.88,43.3,43.3,0,0,0-7.14,2.2,7.58,7.58,0,0,1-2.42-3,9.54,9.54,0,0,1-1-4.23,7.05,7.05,0,0,1,1.37-4.56,10.64,10.64,0,0,1,4.23-2.91,33,33,0,0,1,7.53-1.76A65.53,65.53,0,0,1,407.39,254.58Zm.88,43.19a24.51,24.51,0,0,0,4.12-.38,10,10,0,0,0,3.35-1v-8.79l-7.91.66a12.19,12.19,0,0,0-5.05,1.32,3.55,3.55,0,0,0-2,3.3,4.37,4.37,0,0,0,1.7,3.57Q404.2,297.78,408.27,297.77Z"/><path class="cls-1" d="M468.3,254.58a31.58,31.58,0,0,1,8.85,1.26,21.79,21.79,0,0,1,7.53,3.79,32.48,32.48,0,0,1,7.42-3.63,30.55,30.55,0,0,1,9.95-1.43,30.9,30.9,0,0,1,8.19,1.1,20.92,20.92,0,0,1,7.14,3.46,16.77,16.77,0,0,1,5,6.26,21.9,21.9,0,0,1,1.87,9.51v34.62a25.49,25.49,0,0,1-3.46.66,35.5,35.5,0,0,1-4.89.33,25.93,25.93,0,0,1-4.34-.33,7.41,7.41,0,0,1-3.24-1.32,6.34,6.34,0,0,1-2-2.69,11.61,11.61,0,0,1-.72-4.45V275.47q0-3.3-1.87-4.78a7.92,7.92,0,0,0-5.06-1.48,8.79,8.79,0,0,0-3.3.71,9.53,9.53,0,0,0-2.64,1.48,3.5,3.5,0,0,1,.11.82v37.31a30.83,30.83,0,0,1-3.57.66,34.7,34.7,0,0,1-4.78.33,25.92,25.92,0,0,1-4.34-.33,7.41,7.41,0,0,1-3.24-1.32,6.33,6.33,0,0,1-2-2.69,11.64,11.64,0,0,1-.71-4.45V275.47a5.52,5.52,0,0,0-2-4.78,8.08,8.08,0,0,0-4.89-1.48,8.71,8.71,0,0,0-3.41.61,25.09,25.09,0,0,0-2.42,1.15v38.57a25.47,25.47,0,0,1-3.46.66,35.48,35.48,0,0,1-4.89.33,25.91,25.91,0,0,1-4.34-.33,7.41,7.41,0,0,1-3.24-1.32,6.33,6.33,0,0,1-2-2.69,11.64,11.64,0,0,1-.71-4.45V268.54a7.94,7.94,0,0,1,1.26-4.73,14.25,14.25,0,0,1,3.46-3.3,31.62,31.62,0,0,1,9.29-4.29A40.52,40.52,0,0,1,468.3,254.58Z"/><path class="cls-1" d="M557.67,254.58a42.39,42.39,0,0,1,12.25,1.7,26.24,26.24,0,0,1,9.73,5.22,24.24,24.24,0,0,1,6.37,8.85A31.82,31.82,0,0,1,588.33,283a35,35,0,0,1-2,12.31,24.05,24.05,0,0,1-5.6,8.85,22.82,22.82,0,0,1-8.74,5.33,34.81,34.81,0,0,1-11.37,1.76,26.33,26.33,0,0,1-8.79-1.43v18.24a30,30,0,0,1-3.52.72,31.6,31.6,0,0,1-4.94.38,25.76,25.76,0,0,1-4.34-.33,7.4,7.4,0,0,1-3.24-1.32,6,6,0,0,1-2-2.69,12.54,12.54,0,0,1-.66-4.45V267.66a8.46,8.46,0,0,1,1.26-4.84,13.32,13.32,0,0,1,3.46-3.41,29.16,29.16,0,0,1,8.46-3.52A44.86,44.86,0,0,1,557.67,254.58Zm.22,42q11.32,0,11.32-13.52,0-7-2.8-10.44t-8.08-3.41a13,13,0,0,0-3.74.49,14.91,14.91,0,0,0-2.86,1.15V295a16.29,16.29,0,0,0,2.86,1.1A11.93,11.93,0,0,0,557.89,296.57Z"/><path class="cls-1" d="M384.8,147a54.83,54.83,0,1,0-93.55,38.72l0,0,.57.57L330,224.52l38.17-38.17.57-.57,0,0A54.58,54.58,0,0,0,384.8,147Z"/><path class="cls-1" d="M421.88,110.17A54.83,54.83,0,0,0,318.63,84.45a63.14,63.14,0,0,1,74.62,62.12,62.72,62.72,0,0,1-2.44,17.32l14.4-14.4.57-.57,0,0A54.58,54.58,0,0,0,421.88,110.17Z"/><path class="cls-1" d="M322.8,64.22a54.77,54.77,0,0,0-68.58,84.67l0,0,.57.57,13.74,13.74a63.36,63.36,0,0,1,39.9-75.61A58.12,58.12,0,0,1,322.8,64.22Z"/></svg>