<?xml version="1.0" encoding="utf-8"?>
<!-- Generator: Adobe Illustrator 21.0.0, SVG Export Plug-In . SVG Version: 6.00 Build 0)  -->
<!DOCTYPE svg PUBLIC "-//W3C//DTD SVG 1.1//EN" "http://www.w3.org/Graphics/SVG/1.1/DTD/svg11.dtd">
<svg version="1.1" id="Laag_1" xmlns="http://www.w3.org/2000/svg" xmlns:xlink="http://www.w3.org/1999/xlink" x="0px" y="0px"
	 viewBox="0 0 643 384" style="enable-background:new 0 0 643 384;" xml:space="preserve">
<style type="text/css">
	.st0{opacity:0.5;fill:none;stroke:#1D1D1B;stroke-miterlimit:10;}
	.st1{fill:#FCC433;}
	.st2{fill:#EC6B77;}
	.st3{fill:#009C98;}
	.st4{opacity:0.5;fill:none;stroke:#1D1D1B;stroke-width:1.0111;stroke-miterlimit:10;}
	.st5{fill:none;stroke:#B1B1B1;stroke-width:0.25;stroke-miterlimit:10;}
	.st6{fill:none;stroke:#E20613;stroke-width:1.012;stroke-miterlimit:10;}
	.st7{fill:#1D1D1B;}
	.st8{fill:none;stroke:#E20613;stroke-width:0.9714;stroke-miterlimit:10;}
	.st9{fill:none;stroke:#E20613;stroke-width:0.8775;stroke-miterlimit:10;}
	.st10{opacity:0.5;}
	.st11{fill:none;stroke:#E20613;stroke-width:1.012;stroke-miterlimit:10;stroke-dasharray:11.7614,11.7614;}
	.st12{fill:none;stroke:#E20613;stroke-width:0.8775;stroke-miterlimit:10;stroke-dasharray:10.8088,10.8088;}
	.st13{fill:none;stroke:#E20613;stroke-width:1.012;stroke-miterlimit:10;stroke-dasharray:11.9677,11.9677;}
	.st14{fill:#E20613;}
	.st15{fill:none;stroke:#1D1D1B;stroke-width:0.6729;stroke-miterlimit:10;}
	.st16{fill:none;stroke:#1D1D1B;stroke-width:0.6729;stroke-miterlimit:10;stroke-dasharray:8.4493,8.4493;}
	.st17{opacity:0.5;fill:none;stroke:#1D1D1B;stroke-width:0.7207;stroke-miterlimit:10;stroke-dasharray:8.6488;}
	.st18{fill:#FF6D79;}
	.st19{fill:#1DACA0;}
	.st20{fill:#EEC242;}
	.st21{fill:#FFFFFF;}
	.st22{opacity:0.5;fill:none;stroke:#1D1D1B;stroke-width:0.9988;stroke-miterlimit:10;}
	.st23{opacity:0.5;fill:none;stroke:#1D1D1B;stroke-width:0.9969;stroke-miterlimit:10;}
</style>
<g>
	<g>
		<path class="st19" d="M109.9,309.5c-0.7,0.2-1.9,0.4-3.5,0.7c-1.6,0.2-3.2,0.3-4.9,0.3c-1.6,0-3.1-0.1-4.3-0.3
			c-1.3-0.2-2.4-0.7-3.2-1.3c-0.9-0.7-1.6-1.6-2-2.7c-0.5-1.1-0.7-2.6-0.7-4.5v-24.4c0-3-0.8-5.1-2.3-6.3c-1.5-1.2-3.4-1.8-5.5-1.8
			c-1.5,0-2.9,0.2-4.2,0.6c-1.3,0.4-2.4,0.8-3.2,1.3v38.5c-0.7,0.2-1.9,0.4-3.5,0.7c-1.6,0.2-3.2,0.3-4.9,0.3
			c-1.6,0-3.1-0.1-4.3-0.3c-1.3-0.2-2.4-0.7-3.2-1.3c-0.9-0.7-1.6-1.6-2-2.7c-0.5-1.1-0.7-2.6-0.7-4.5V238c0.8-0.1,2-0.3,3.6-0.6
			c1.6-0.3,3.2-0.4,4.8-0.4c1.6,0,3.1,0.1,4.3,0.3c1.3,0.2,2.4,0.7,3.2,1.3c0.9,0.7,1.6,1.6,2,2.7c0.5,1.1,0.7,2.6,0.7,4.5v10.8
			c1-0.4,2.4-0.8,4.3-1.3c1.9-0.5,4.1-0.7,6.4-0.7c7.3,0,12.9,1.8,17,5.4c4.1,3.6,6.1,9,6.1,16.2V309.5z"/>
	</g>
	<g>
		<path class="st19" d="M143.4,254.6c4,0,7.6,0.4,10.8,1.2c3.3,0.8,6,2,8.4,3.7c2.3,1.6,4.1,3.7,5.3,6.3c1.2,2.5,1.9,5.5,1.9,9v24.6
			c0,1.9-0.5,3.5-1.6,4.7c-1.1,1.2-2.3,2.3-3.8,3.1c-4.8,2.9-11.5,4.3-20.1,4.3c-3.9,0-7.4-0.4-10.5-1.1c-3.1-0.7-5.8-1.8-8-3.3
			c-2.2-1.5-4-3.3-5.2-5.6c-1.2-2.3-1.8-4.9-1.8-7.9c0-5.1,1.5-8.9,4.5-11.6c3-2.7,7.7-4.4,14-5.1l14.4-1.5v-0.8
			c0-2.1-0.9-3.6-2.8-4.6c-1.9-0.9-4.6-1.4-8.1-1.4c-2.8,0-5.5,0.3-8.1,0.9c-2.6,0.6-5,1.3-7.1,2.2c-1-0.7-1.8-1.7-2.4-3
			c-0.7-1.4-1-2.8-1-4.2c0-1.9,0.5-3.4,1.4-4.6c0.9-1.1,2.3-2.1,4.2-2.9c2.1-0.8,4.6-1.4,7.5-1.8
			C138.1,254.8,140.8,254.6,143.4,254.6z M144.3,297.8c1.2,0,2.6-0.1,4.1-0.4c1.5-0.3,2.6-0.6,3.4-1v-8.8l-7.9,0.7
			c-2.1,0.1-3.7,0.6-5.1,1.3c-1.3,0.7-2,1.8-2,3.3c0,1.5,0.6,2.7,1.7,3.6C139.6,297.3,141.6,297.8,144.3,297.8z"/>
	</g>
	<g>
		<path class="st19" d="M197.4,309.5c-0.7,0.2-1.9,0.4-3.5,0.7c-1.6,0.2-3.2,0.3-4.9,0.3c-1.6,0-3.1-0.1-4.3-0.3
			c-1.3-0.2-2.4-0.7-3.2-1.3s-1.6-1.6-2-2.7c-0.5-1.1-0.7-2.6-0.7-4.5v-33c0-1.7,0.3-3.1,0.9-4.3c0.6-1.2,1.5-2.3,2.7-3.2
			c1.2-1,2.6-1.8,4.3-2.6c1.7-0.8,3.6-1.4,5.5-2c2-0.6,4-1,6.2-1.4c2.1-0.3,4.2-0.5,6.4-0.5c3.5,0,6.3,0.7,8.4,2
			c2,1.4,3.1,3.6,3.1,6.6c0,1-0.1,2-0.4,3c-0.3,1-0.7,1.9-1.1,2.7c-1.5,0-3.1,0.1-4.7,0.2c-1.6,0.1-3.2,0.4-4.7,0.7
			c-1.5,0.3-3,0.6-4.3,0.9c-1.4,0.3-2.5,0.7-3.5,1.2V309.5z"/>
	</g>
	<g>
		<path class="st19" d="M240.7,291.3c0,1.9,0.6,3.3,1.8,4.1c1.2,0.8,2.9,1.2,5.1,1.2c1.1,0,2.2-0.1,3.4-0.3c1.2-0.2,2.2-0.4,3.1-0.7
			c0.7,0.8,1.2,1.7,1.7,2.7c0.5,1,0.7,2.2,0.7,3.6c0,2.8-1,5.1-3.1,6.8c-2.1,1.8-5.8,2.6-11,2.6c-6.4,0-11.4-1.5-14.9-4.4
			c-3.5-2.9-5.2-7.7-5.2-14.3v-47c0.8-0.2,2-0.5,3.5-0.7c1.5-0.3,3.1-0.4,4.8-0.4c3.2,0,5.7,0.6,7.5,1.7c1.8,1.1,2.7,3.5,2.7,7.2v7
			h14.4c0.4,0.8,0.9,1.8,1.3,3c0.4,1.2,0.6,2.5,0.6,4c0,2.6-0.6,4.4-1.7,5.6c-1.1,1.1-2.7,1.7-4.6,1.7h-10V291.3z"/>
	</g>
	<g>
		<path class="st19" d="M295,311.4c-4.3,0-8.3-0.6-12-1.8c-3.7-1.2-6.9-3-9.7-5.4c-2.7-2.4-4.9-5.5-6.5-9.1
			c-1.6-3.7-2.4-7.9-2.4-12.9c0-4.8,0.8-9,2.4-12.5c1.6-3.5,3.6-6.3,6.2-8.6c2.6-2.2,5.5-3.9,8.8-4.9c3.3-1.1,6.7-1.6,10.1-1.6
			c3.9,0,7.4,0.6,10.6,1.8c3.2,1.2,5.9,2.8,8.2,4.8c2.3,2.1,4.1,4.5,5.4,7.4c1.3,2.9,1.9,6,1.9,9.3c0,2.5-0.7,4.4-2.1,5.7
			c-1.4,1.3-3.3,2.2-5.8,2.5l-27.1,4.1c0.8,2.4,2.5,4.2,4.9,5.4c2.5,1.2,5.3,1.8,8.6,1.8c3,0,5.8-0.4,8.5-1.2
			c2.7-0.8,4.9-1.7,6.5-2.7c1.2,0.7,2.2,1.8,3,3.1c0.8,1.3,1.2,2.7,1.2,4.2c0,3.3-1.5,5.8-4.6,7.4c-2.3,1.2-5,2.1-7.9,2.5
			C300.3,311.2,297.6,311.4,295,311.4z M291.9,268.2c-1.8,0-3.3,0.3-4.6,0.9c-1.3,0.6-2.3,1.3-3.1,2.3c-0.8,0.9-1.4,1.9-1.8,3.1
			c-0.4,1.1-0.6,2.3-0.7,3.5l18.8-3.1c-0.2-1.5-1-2.9-2.4-4.4C296.7,268.9,294.6,268.2,291.9,268.2z"/>
	</g>
	<g>
		<path class="st19" d="M377.9,300c-0.4,3.4-1.4,6.1-3,7.9c-1.6,1.8-4,2.7-7.2,2.7c-2.3,0-4.4-0.6-6.3-1.7c-1.8-1.1-3.8-3.1-5.9-5.8
			l-10.9-13.6v20c-0.8,0.1-2,0.3-3.6,0.6c-1.6,0.3-3.2,0.4-4.8,0.4c-1.6,0-3.1-0.1-4.3-0.3c-1.3-0.2-2.4-0.7-3.2-1.3
			c-0.9-0.7-1.6-1.6-2-2.7c-0.5-1.1-0.7-2.6-0.7-4.5v-63.6c0.8-0.2,2-0.5,3.6-0.7c1.6-0.3,3.2-0.4,4.8-0.4c1.6,0,3.1,0.1,4.3,0.3
			c1.3,0.2,2.4,0.7,3.2,1.3c0.9,0.7,1.6,1.6,2,2.7c0.5,1.1,0.7,2.6,0.7,4.5v29l18.9-19.3c3.8,0,6.9,0.8,9.2,2.5
			c2.3,1.7,3.5,3.8,3.5,6.4c0,1.1-0.2,2.1-0.6,3c-0.4,0.9-0.9,1.8-1.7,2.8c-0.8,1-1.8,2-3,3c-1.2,1.1-2.6,2.3-4.2,3.7l-6.4,5.5
			L377.9,300z"/>
	</g>
	<g>
		<path class="st19" d="M407.4,254.6c4,0,7.6,0.4,10.8,1.2c3.3,0.8,6,2,8.4,3.7c2.3,1.6,4.1,3.7,5.3,6.3c1.2,2.5,1.9,5.5,1.9,9v24.6
			c0,1.9-0.5,3.5-1.6,4.7c-1.1,1.2-2.3,2.3-3.8,3.1c-4.8,2.9-11.5,4.3-20.1,4.3c-3.9,0-7.4-0.4-10.5-1.1c-3.1-0.7-5.8-1.8-8-3.3
			c-2.2-1.5-4-3.3-5.2-5.6c-1.2-2.3-1.8-4.9-1.8-7.9c0-5.1,1.5-8.9,4.5-11.6c3-2.7,7.7-4.4,14-5.1l14.4-1.5v-0.8
			c0-2.1-0.9-3.6-2.8-4.6c-1.9-0.9-4.6-1.4-8.1-1.4c-2.8,0-5.5,0.3-8.1,0.9c-2.6,0.6-5,1.3-7.1,2.2c-1-0.7-1.8-1.7-2.4-3
			c-0.7-1.4-1-2.8-1-4.2c0-1.9,0.5-3.4,1.4-4.6c0.9-1.1,2.3-2.1,4.2-2.9c2.1-0.8,4.6-1.4,7.5-1.8
			C402.1,254.8,404.8,254.6,407.4,254.6z M408.3,297.8c1.2,0,2.6-0.1,4.1-0.4c1.5-0.3,2.6-0.6,3.4-1v-8.8l-7.9,0.7
			c-2.1,0.1-3.7,0.6-5.1,1.3c-1.3,0.7-2,1.8-2,3.3c0,1.5,0.6,2.7,1.7,3.6C403.6,297.3,405.6,297.8,408.3,297.8z"/>
	</g>
	<g>
		<path class="st19" d="M468.3,254.6c3,0,6,0.4,8.8,1.3c2.9,0.8,5.4,2.1,7.5,3.8c2.2-1.5,4.7-2.7,7.4-3.6c2.7-1,6.1-1.4,9.9-1.4
			c2.8,0,5.5,0.4,8.2,1.1c2.7,0.7,5.1,1.9,7.1,3.5c2.1,1.6,3.8,3.7,5,6.3c1.2,2.6,1.9,5.8,1.9,9.5v34.6c-0.7,0.2-1.9,0.4-3.5,0.7
			c-1.6,0.2-3.2,0.3-4.9,0.3c-1.6,0-3.1-0.1-4.3-0.3c-1.3-0.2-2.4-0.7-3.2-1.3c-0.9-0.7-1.6-1.6-2-2.7c-0.5-1.1-0.7-2.6-0.7-4.5
			v-26.3c0-2.2-0.6-3.8-1.9-4.8c-1.2-1-2.9-1.5-5.1-1.5c-1,0-2.1,0.2-3.3,0.7c-1.2,0.5-2.1,1-2.6,1.5c0.1,0.3,0.1,0.6,0.1,0.8
			c0,0.3,0,0.5,0,0.7v36.6c-0.8,0.2-2,0.4-3.6,0.7c-1.6,0.2-3.2,0.3-4.8,0.3s-3.1-0.1-4.3-0.3c-1.3-0.2-2.4-0.7-3.2-1.3
			s-1.6-1.6-2-2.7c-0.5-1.1-0.7-2.6-0.7-4.5v-26.3c0-2.2-0.7-3.8-2-4.8c-1.4-1-3-1.5-4.9-1.5c-1.3,0-2.5,0.2-3.4,0.6
			c-1,0.4-1.8,0.8-2.4,1.2v38.6c-0.7,0.2-1.9,0.4-3.5,0.7c-1.6,0.2-3.2,0.3-4.9,0.3c-1.6,0-3.1-0.1-4.3-0.3
			c-1.3-0.2-2.4-0.7-3.2-1.3s-1.6-1.6-2-2.7c-0.5-1.1-0.7-2.6-0.7-4.5v-33.2c0-2,0.4-3.6,1.3-4.7c0.8-1.2,2-2.3,3.5-3.3
			c2.5-1.8,5.6-3.2,9.3-4.3C460.4,255.1,464.3,254.6,468.3,254.6z"/>
	</g>
	<g>
		<path class="st19" d="M557.7,254.6c4.4,0,8.5,0.6,12.3,1.7c3.8,1.1,7,2.9,9.7,5.2c2.7,2.3,4.8,5.3,6.4,8.8
			c1.5,3.6,2.3,7.8,2.3,12.7c0,4.7-0.7,8.8-2,12.3c-1.3,3.5-3.2,6.5-5.6,8.8c-2.4,2.4-5.3,4.2-8.7,5.3c-3.4,1.2-7.2,1.8-11.4,1.8
			c-3.2,0-6.1-0.5-8.8-1.4v18.2c-0.7,0.2-1.9,0.5-3.5,0.7c-1.6,0.3-3.3,0.4-4.9,0.4c-1.6,0-3.1-0.1-4.3-0.3
			c-1.3-0.2-2.4-0.7-3.2-1.3c-0.9-0.7-1.5-1.6-2-2.7c-0.4-1.1-0.7-2.6-0.7-4.5v-52.8c0-2,0.4-3.6,1.3-4.8c0.8-1.2,2-2.4,3.5-3.4
			c2.3-1.5,5.1-2.6,8.5-3.5C549.7,255,553.5,254.6,557.7,254.6z M557.9,296.6c7.5,0,11.3-4.5,11.3-13.5c0-4.7-0.9-8.2-2.8-10.4
			c-1.9-2.3-4.6-3.4-8.1-3.4c-1.4,0-2.6,0.2-3.7,0.5c-1.1,0.3-2.1,0.7-2.9,1.2V295c0.9,0.4,1.8,0.8,2.9,1.1
			C555.6,296.4,556.7,296.6,557.9,296.6z"/>
	</g>
</g>
<g>
	<path class="st1" d="M384.8,147c0-30.3-24.5-54.8-54.8-54.8s-54.8,24.5-54.8,54.8c0,15.1,6.2,28.8,16.1,38.7l0,0l0.6,0.6l38.2,38.2
		l38.2-38.2l0.6-0.6l0,0C378.6,175.8,384.8,162.2,384.8,147z"/>
</g>
<g>
	<g>
		<path class="st18" d="M421.9,110.2c0-30.3-24.5-54.8-54.8-54.8c-21,0-39.2,11.8-48.4,29.1c3.7-0.7,7.5-1.1,11.4-1.1
			c34.9,0,63.2,28.3,63.2,63.2c0,6-0.9,11.8-2.4,17.3l14.4-14.4l0.6-0.6l0,0C415.7,139,421.9,125.3,421.9,110.2z"/>
	</g>
</g>
<g>
	<g>
		<path class="st19" d="M322.8,64.2c-8.6-5.6-18.8-8.9-29.9-8.9c-30.3,0-54.8,24.5-54.8,54.8c0,15.1,6.2,28.8,16.1,38.7l0,0l0.6,0.6
			l13.7,13.7c-1.3-5.1-2-10.4-2-16c0-27.5,17.5-50.9,41.9-59.6C311.3,78.7,316.3,70.7,322.8,64.2z"/>
	</g>
</g>
</svg>
