<svg id="Laag_1" data-name="Laag 1" xmlns="http://www.w3.org/2000/svg" viewBox="0 0 238.33 227.5"><defs><style>.cls-1{fill:#eec344;}.cls-2{fill:#d16b76;}.cls-3{fill:#489b98;}</style></defs><title>logo_verhoudingen</title><path class="cls-1" d="M163.65,119.24A44.33,44.33,0,1,0,88,150.55l0,0,.46.46,30.86,30.86L150.18,151l.46-.46,0,0A44.13,44.13,0,0,0,163.65,119.24Z"/><path class="cls-2" d="M193.63,89.44a44.33,44.33,0,0,0-83.48-20.8,51.05,51.05,0,0,1,60.34,50.23,50.71,50.71,0,0,1-2,14l11.65-11.65.46-.46,0,0A44.13,44.13,0,0,0,193.63,89.44Z"/><path class="cls-3" d="M113.52,52.28a44.29,44.29,0,0,0-55.45,68.46l0,0,.46.46,11.11,11.11A51.24,51.24,0,0,1,101.89,71.2,47,47,0,0,1,113.52,52.28Z"/></svg>