<?xml version="1.0" encoding="utf-8"?>
<!-- Generator: Adobe Illustrator 21.0.0, SVG Export Plug-In . SVG Version: 6.00 Build 0)  -->
<!DOCTYPE svg PUBLIC "-//W3C//DTD SVG 1.1//EN" "http://www.w3.org/Graphics/SVG/1.1/DTD/svg11.dtd">
<svg version="1.1" id="Laag_1" xmlns="http://www.w3.org/2000/svg" xmlns:xlink="http://www.w3.org/1999/xlink" x="0px" y="0px"
	 viewBox="0 0 238.3 227.5" style="enable-background:new 0 0 238.3 227.5;" xml:space="preserve">
<style type="text/css">
	.st0{opacity:0.5;fill:none;stroke:#1D1D1B;stroke-miterlimit:10;}
	.st1{fill:#FCC433;}
	.st2{fill:#EC6B77;}
	.st3{fill:#009C98;}
	.st4{opacity:0.5;fill:none;stroke:#1D1D1B;stroke-width:1.0111;stroke-miterlimit:10;}
	.st5{fill:none;stroke:#B1B1B1;stroke-width:0.25;stroke-miterlimit:10;}
	.st6{fill:none;stroke:#E20613;stroke-width:1.012;stroke-miterlimit:10;}
	.st7{fill:#1D1D1B;}
	.st8{fill:none;stroke:#E20613;stroke-width:0.9714;stroke-miterlimit:10;}
	.st9{fill:none;stroke:#E20613;stroke-width:0.8775;stroke-miterlimit:10;}
	.st10{opacity:0.5;}
	.st11{fill:none;stroke:#E20613;stroke-width:1.012;stroke-miterlimit:10;stroke-dasharray:11.7614,11.7614;}
	.st12{fill:none;stroke:#E20613;stroke-width:0.8775;stroke-miterlimit:10;stroke-dasharray:10.8088,10.8088;}
	.st13{fill:none;stroke:#E20613;stroke-width:1.012;stroke-miterlimit:10;stroke-dasharray:11.9677,11.9677;}
	.st14{fill:#E20613;}
	.st15{fill:none;stroke:#1D1D1B;stroke-width:0.6729;stroke-miterlimit:10;}
	.st16{fill:none;stroke:#1D1D1B;stroke-width:0.6729;stroke-miterlimit:10;stroke-dasharray:8.4493,8.4493;}
	.st17{opacity:0.5;fill:none;stroke:#1D1D1B;stroke-width:0.7207;stroke-miterlimit:10;stroke-dasharray:8.6488;}
	.st18{fill:#FF6D79;}
	.st19{fill:#1DACA0;}
	.st20{fill:#EEC242;}
	.st21{fill:#FFFFFF;}
	.st22{opacity:0.5;fill:none;stroke:#1D1D1B;stroke-width:0.9988;stroke-miterlimit:10;}
	.st23{opacity:0.5;fill:none;stroke:#1D1D1B;stroke-width:0.9969;stroke-miterlimit:10;}
</style>
<g>
	<path class="st1" d="M163.7,119.2c0-24.5-19.8-44.3-44.3-44.3S75,94.8,75,119.2c0,12.2,5,23.3,13,31.3l0,0l0.5,0.5l30.9,30.9
		l30.9-30.9l0.5-0.5l0,0C158.7,142.5,163.7,131.5,163.7,119.2z"/>
</g>
<g>
	<g>
		<path class="st18" d="M193.6,89.4c0-24.5-19.8-44.3-44.3-44.3c-17,0-31.7,9.5-39.2,23.5c3-0.6,6.1-0.9,9.3-0.9
			c28.2,0,51.1,22.9,51.1,51.1c0,4.9-0.7,9.6-2,14l11.6-11.6l0.5-0.5l0,0C188.6,112.7,193.6,101.7,193.6,89.4z"/>
	</g>
</g>
<g>
	<g>
		<path class="st19" d="M113.5,52.3c-6.9-4.5-15.2-7.2-24.1-7.2C64.9,45.1,45,65,45,89.4c0,12.2,5,23.3,13,31.3l0,0l0.5,0.5
			l11.1,11.1c-1.1-4.1-1.7-8.4-1.7-12.9c0-22.2,14.1-41.1,33.9-48.2C104.2,64,108.3,57.5,113.5,52.3z"/>
	</g>
</g>
</svg>
