
<svg xmlns="http://www.w3.org/2000/svg" version="1.1" xmlns:xlink="http://www.w3.org/1999/xlink" preserveAspectRatio="none" x="0px" y="0px" width="200px" height="110px" viewBox="0 0 200 110">
<defs>
<g id="Layer0_0_FILL">
<path fill="#1BACA0" stroke="none" d="
M 74.95 83.95
Q 74.75 83.25 74.5 82.8
L 69.05 82.8 69.05 80.15
Q 69.05 78.1 68.05 77.5 67.05 76.8 65.25 76.8 64.25 76.8 63.4 77 62.75 77.05 62.1 77.25
L 62.1 94.9
Q 62.1 98.65 64.1 100.3 66 102 69.65 102 72.65 102 73.85 101 75.05 99.95 75.05 98.4 75.05 97.6 74.75 97.05 74.35 96.35 74.1 96.05 73.45 96.25 72.95 96.3 72.4 96.45 71.65 96.45 70.45 96.45 69.75 95.95 69.05 95.55 69.05 94.4
L 69.05 88.2 72.8 88.2
Q 73.9 88.2 74.55 87.55 75.2 86.9 75.2 85.45 75.2 84.7 74.95 83.95
M 55.7 86.4
L 57.45 86.15
Q 58.35 86.05 59.25 86.05 59.45 85.65 59.65 85.05 59.85 84.5 59.85 83.95 59.85 82.2 58.65 81.4 57.45 80.65 55.55 80.65 54.55 80.65 53.15 80.85 51.85 81.05 50.8 81.35 49.85 81.65 48.7 82.1 47.8 82.6 47.05 83.1 46.45 83.65 46.05 84.3 45.7 85.05 45.7 85.95
L 45.7 98.35
Q 45.7 99.35 46 100.05 46.3 100.75 46.75 101.05 47.2 101.45 47.95 101.55 48.6 101.65 49.6 101.65 50.65 101.65 51.4 101.55 52.35 101.45 52.75 101.3
L 52.75 87.2
Q 53.25 86.95 54.05 86.75 54.65 86.6 55.7 86.4
M 31.45 85.85
Q 33.35 85.85 34.5 86.4 35.55 86.95 35.55 88.1
L 35.55 88.4 30.1 89
Q 26.5 89.35 24.85 90.9 23.15 92.4 23.15 95.25 23.15 96.95 23.85 98.25 24.55 99.6 25.75 100.4 27.05 101.2 28.8 101.55 30.7 102 32.75 102 37.6 102 40.35 100.4 41.2 99.85 41.75 99.2 42.35 98.6 42.35 97.45
L 42.35 88.2
Q 42.35 86.2 41.65 84.8 40.95 83.4 39.65 82.45 38.3 81.5 36.5 81.1 34.75 80.6 32.4 80.6 30.85 80.6 29.35 80.8 27.65 81.05 26.5 81.5 25.45 81.9 24.9 82.6 24.4 83.25 24.4 84.3 24.4 85.05 24.75 85.9 25.15 86.7 25.7 87 26.9 86.55 28.4 86.2 29.8 85.85 31.45 85.85
M 32.75 96.9
Q 31.25 96.9 30.55 96.4 29.95 95.85 29.95 95 29.95 94.2 30.7 93.8 31.45 93.35 32.55 93.3
L 35.6 93.05 35.6 96.35
Q 35.15 96.6 34.3 96.7 33.5 96.9 32.75 96.9
M 3.15 74
Q 2.3 74 1.35 74.15
L 0 74.35 0 98.35
Q 0 99.4 0.25 100.05 0.6 100.75 1.05 101.05 1.6 101.45 2.3 101.55 2.9 101.65 3.9 101.65 4.95 101.65 5.75 101.55 6.65 101.4 7.05 101.3
L 7.05 86.8
Q 7.45 86.55 8.25 86.3 9 86.1 9.8 86.1 11.05 86.1 11.9 86.8 12.75 87.45 12.75 89.2
L 12.75 98.35
Q 12.75 99.35 13 100.05 13.35 100.75 13.8 101.05 14.3 101.45 15.05 101.55 15.65 101.65 16.65 101.65 17.75 101.65 18.5 101.55 19.4 101.45 19.8 101.3
L 19.8 88.8
Q 19.8 84.7 17.5 82.65 15.2 80.6 11.1 80.6 9.75 80.6 8.7 80.9 7.65 81.1 7.05 81.35
L 7.05 77.3
Q 7.05 76.25 6.75 75.6 6.5 75 6 74.6 5.5 74.25 4.8 74.1 3.95 74 3.15 74
M 135.9 81.1
Q 134.2 80.6 131.85 80.6 130.25 80.6 128.75 80.8 127.05 81.05 125.9 81.5 124.8 81.95 124.35 82.6 123.8 83.2 123.8 84.3 123.8 85.15 124.15 85.9 124.55 86.7 125.1 87 126.3 86.55 127.8 86.2 129.2 85.85 130.85 85.85 132.8 85.85 133.9 86.4 134.95 86.9 134.95 88.1
L 134.95 88.4 129.55 89
Q 125.95 89.35 124.25 90.9 122.55 92.4 122.55 95.25 122.55 96.9 123.25 98.25 123.95 99.5 125.2 100.4 126.45 101.2 128.2 101.55 130.1 102 132.15 102 137.1 102 139.75 100.4 140.6 99.9 141.15 99.2 141.8 98.5 141.8 97.45
L 141.8 88.2
Q 141.8 86.3 141.1 84.8 140.4 83.4 139.05 82.45 137.7 81.5 135.9 81.1
M 129.35 95
Q 129.35 94.15 130.1 93.8 130.85 93.35 132 93.3
L 135 93.05 135 96.35
Q 134.55 96.6 133.75 96.7 132.9 96.9 132.15 96.9 130.7 96.9 130 96.4 129.35 95.8 129.35 95
M 95.45 83.1
Q 94.1 81.9 92.35 81.25 90.6 80.6 88.35 80.6 86.35 80.6 84.55 81.2 82.65 81.85 81.2 83.1 79.8 84.3 78.9 86.3 78 88.25 78 91 78 93.8 78.9 95.85 79.8 97.95 81.3 99.3 82.9 100.65 85 101.3 87.15 102 89.55 102 91.05 102 92.6 101.75 94.3 101.5 95.6 100.8 97.35 99.9 97.35 98.05 97.35 97.2 96.9 96.45 96.4 95.7 95.8 95.3 94.7 95.95 93.3 96.3 91.85 96.75 90.1 96.75 88.25 96.75 86.85 96.05 85.5 95.4 85 94.05
L 95.25 92.5
Q 96.65 92.3 97.4 91.55 98.2 90.8 98.2 89.35 98.2 87.5 97.45 85.85 96.75 84.25 95.45 83.1
M 88.35 85.75
Q 89.9 85.75 90.7 86.55 91.4 87.4 91.6 88.25
L 84.5 89.35
Q 84.5 88.8 84.75 88.05 85 87.45 85.45 86.95 85.85 86.45 86.6 86.05 87.35 85.75 88.35 85.75
M 104.3 74
Q 103.35 74 102.5 74.15 101.5 74.3 101.1 74.45
L 101.1 98.35
Q 101.1 99.35 101.4 100.05 101.75 100.75 102.2 101.05 102.65 101.45 103.4 101.55 104.05 101.65 105.05 101.65 106.1 101.65 106.85 101.55
L 108.15 101.3 108.15 93.8 112.25 98.9
Q 113.45 100.45 114.5 101.05 115.55 101.75 116.85 101.75 118.65 101.75 119.6 100.7 120.5 99.65 120.7 97.7
L 114.1 91.1 118.05 87.65
Q 118.7 87.15 119.2 86.5 119.6 86.05 119.85 85.4 120.05 85 120.05 84.3 120.05 82.85 118.75 81.9 117.4 80.95 115.3 80.95
L 108.15 88.25 108.15 77.3
Q 108.15 76.25 107.9 75.6 107.65 75 107.15 74.6 106.65 74.25 105.9 74.1 105.15 74 104.3 74
M 95.4 12.75
Q 97.1 7.45 101.1 3.5 95.7 0 89.3 0 80.35 0 74.05 6.35 67.7 12.65 67.7 21.65 67.7 26 69.4 30 71.05 33.9 74.05 36.85
L 74.05 36.9 79.7 42.5
Q 78.9 39.35 78.9 36.25 78.9 28.2 83.55 21.7 88.1 15.4 95.4 12.75
M 180.95 82.45
Q 180.15 83.05 179.7 83.7 179.25 84.4 179.25 85.55
L 179.25 105.4
Q 179.25 106.45 179.5 107.1 179.75 107.7 180.2 108.05 180.75 108.5 181.4 108.6 182.05 108.7 183.05 108.7 183.9 108.7 184.9 108.55
L 186.25 108.3 186.25 101.4
Q 187.8 102 189.55 102 191.9 102 193.85 101.3 195.75 100.65 197.15 99.3 198.55 97.9 199.25 95.95 200 93.9 200 91.35 200 88.6 199.1 86.55 198.25 84.55 196.7 83.2 195.15 81.9 193.05 81.25 190.9 80.6 188.45 80.6 186.1 80.6 184.15 81.1 182.2 81.65 180.95 82.45
M 187.25 86.3
Q 188 86.1 188.7 86.1 190.7 86.1 191.75 87.4 192.8 88.7 192.8 91.35 192.8 96.45 188.55 96.45 187.85 96.45 187.25 96.25 186.7 96.1 186.2 95.85
L 186.2 86.75
Q 186.6 86.5 187.25 86.3
M 175.2 84.7
Q 174.45 83.25 173.25 82.35 172.1 81.4 170.55 81 169.1 80.6 167.5 80.6 165.2 80.6 163.75 81.15 162.1 81.7 160.95 82.55 159.75 81.6 158.1 81.1 156.45 80.6 154.8 80.6 152.4 80.6 150.4 81.25 148.2 81.9 146.95 82.85 146.1 83.45 145.6 84.1 145.15 84.7 145.15 85.85
L 145.15 98.35
Q 145.15 99.45 145.4 100.05 145.7 100.7 146.2 101.05 146.7 101.4 147.4 101.55 148.05 101.65 149 101.65 150.1 101.65 150.9 101.55 151.75 101.4 152.15 101.3
L 152.15 86.8
Q 152.65 86.55 153.1 86.35 153.65 86.1 154.4 86.1 155.45 86.1 156.2 86.7 156.95 87.25 156.95 88.5
L 156.95 98.35
Q 156.95 99.45 157.25 100.05 157.6 100.75 158 101.05 158.5 101.45 159.25 101.55 159.85 101.65 160.85 101.65 161.9 101.65 162.65 101.55 163.6 101.4 164.05 101.3
L 164.05 87.25 163.95 86.95
Q 164.3 86.7 164.95 86.4 165.7 86.1 166.2 86.1 167.45 86.1 168.1 86.7 168.85 87.25 168.85 88.5
L 168.85 98.35
Q 168.85 99.45 169.1 100.05 169.35 100.7 169.85 101.05 170.3 101.4 171.05 101.55 171.7 101.65 172.7 101.65 173.75 101.65 174.55 101.55 175.45 101.4 175.85 101.3
L 175.85 88.25
Q 175.85 86.15 175.2 84.7 Z"/>

<path fill="#FFC14D" stroke="none" d="
M 123.8 44.55
Q 125.5 40.55 125.5 36.15 125.5 27.2 119.2 20.85 112.9 14.55 103.9 14.55 94.95 14.55 88.65 20.85 82.3 27.2 82.3 36.15 82.3 40.5 84 44.55 85.65 48.35 88.65 51.4
L 103.9 66.65 119.2 51.4 119.15 51.4
Q 122.2 48.4 123.8 44.55 Z"/>

<path fill="#FF6D79" stroke="none" d="
M 121.55 18.35
Q 128.85 25.65 128.85 35.95 128.85 39.3 127.9 42.75
L 133.75 36.9 133.75 36.85
Q 136.75 33.9 138.45 30 140.1 26 140.1 21.65 140.1 12.65 133.75 6.35 127.5 0 118.5 0 112.45 0 107.25 3.2 102.25 6.25 99.45 11.5 101.9 11.05 103.95 11.05 114.25 11.05 121.55 18.35 Z"/>
</g>
</defs>

<g transform="matrix( 1, 0, 0, 1, 0,1) ">
<use xlink:href="#Layer0_0_FILL"/>
</g>
</svg>
